# xmcd
#
# Track frame offsets:
#	150
#	9207
#	19245
#	31085
#	40025
#	50602
#	60565
#	70800
#	80235
#	90187
#	100415
#	110537
#	119995
#	130435
#	141047
#	151572
#	164625
#	176670
#	188870
#	197852
#	209430
#	220590
#	230760
#	243762
#
# Disc length: 3404 seconds
#
# Revision: 1
# Processed by: cddbd v1.4PL0 Copyright (c) Steve Scherf et al.
# Submitted via: audiograbber 1.80
#
DISCID=4f0d4a18
DTITLE=shirley and lee - the sweethearts of the blues disc 4
DYEAR=1900
DGENRE=
TTITLE0=the joker 1960
TTITLE1=together we stand 1960
TTITLE2=my last letter 1960
TTITLE3=i'm old enough 1960
TTITLE4=you wouldn't 1960
TTITLE5=a little thing 1960
TTITLE6=the engagement 1960
TTITLE7=don't stop now (keep the good times rollin') 1960
TTITLE8=hey little boy 1960
TTITLE9=the golden rule 1960
TTITLE10=honky tonk music 1960
TTITLE11=dancing world 1960
TTITLE12=thank you 1960
TTITLE13=wouldn't be here 1960
TTITLE14=the brink of disaster 1960
TTITLE15=paper doll 1960
TTITLE16=when i fall in love 1960
TTITLE17=don't marry too soon 1960
TTITLE18=honey bee 1960
TTITLE19=when a girl meets a boy 1960
TTITLE20=never let me go 1960
TTITLE21=surf heaven 1960
TTITLE22=surfer's hangout 1960
TTITLE23=somebody put a juke box in the study hall 1960
EXTD=
EXTT0=
EXTT1=
EXTT2=
EXTT3=
EXTT4=
EXTT5=
EXTT6=
EXTT7=
EXTT8=
EXTT9=
EXTT10=
EXTT11=
EXTT12=
EXTT13=
EXTT14=
EXTT15=
EXTT16=
EXTT17=
EXTT18=
EXTT19=
EXTT20=
EXTT21=
EXTT22=
EXTT23=
PLAYORDER=
